<?xml version="1.0" encoding="utf-8"?>
<!-- Generator: Adobe Illustrator 16.0.0, SVG Export Plug-In . SVG Version: 6.00 Build 0)  -->
<!DOCTYPE svg PUBLIC "-//W3C//DTD SVG 1.1//EN" "http://www.w3.org/Graphics/SVG/1.1/DTD/svg11.dtd">
<svg version="1.1" id="Capa_1" xmlns="http://www.w3.org/2000/svg" xmlns:xlink="http://www.w3.org/1999/xlink" x="0px" y="0px"
	 width="22.922px" height="22.556px" viewBox="0 2.814 22.922 22.556" enable-background="new 0 2.814 22.922 22.556"
	 xml:space="preserve">
<g>
	<g>
		<path fill="#14892C" d="M22.219,15.572l-9.724-4.238c-0.562-0.245-1.481-0.245-2.043-0.001l-9.75,4.24
			c-0.562,0.245-0.846,0.932-0.631,1.526l2.597,7.189c0.215,0.595,0.889,1.082,1.498,1.082h14.588c0.609,0,1.283-0.487,1.498-1.082
			l2.598-7.189C23.065,16.504,22.781,15.816,22.219,15.572z"/>
		<path fill="#14892C" d="M4.527,13.157c1.232-0.419,5.766-2.519,5.766-2.519c0.321-0.139,0.74-0.217,1.18-0.217
			c0.442,0,0.862,0.078,1.184,0.218c0,0,4.447,1.928,5.616,2.447c0.76,0.338,0.76-0.324,0.76-0.324V8.79
			c0-0.539-0.422-0.979-0.938-0.979H4.826c-0.515,0-0.938,0.44-0.938,0.979v4.038C3.889,12.828,3.883,13.377,4.527,13.157z
			 M6.942,8.856c0-0.16,0.125-0.291,0.278-0.291h8.481c0.153,0,0.278,0.131,0.278,0.291v0.126c0,0.16-0.125,0.291-0.278,0.291H7.22
			c-0.153,0-0.278-0.131-0.278-0.291V8.856z"/>
		<path fill="#14892C" d="M7.506,7.069h7.91c0.508,0,0.924-0.428,0.937-0.955l0.001-2.32c0-0.539-0.422-0.98-0.938-0.98h-7.91
			c-0.516,0-0.938,0.441-0.938,0.98l0.001,2.32C6.582,6.641,6.998,7.069,7.506,7.069z M14.352,4.085
			c0.515,0,0.932,0.436,0.932,0.973s-0.417,0.974-0.932,0.974c-0.514,0-0.932-0.436-0.932-0.974S13.838,4.085,14.352,4.085z
			 M11.439,4.085c0.514,0,0.932,0.436,0.932,0.973s-0.417,0.974-0.932,0.974c-0.515,0-0.932-0.436-0.932-0.974
			S10.925,4.085,11.439,4.085z M8.526,4.085c0.514,0,0.931,0.436,0.931,0.973S9.04,6.031,8.526,6.031
			c-0.515,0-0.932-0.436-0.932-0.974S8.011,4.085,8.526,4.085z"/>
	</g>
</g>
</svg>
