<?xml version="1.0" encoding="utf-8"?>
<!-- Generator: Adobe Illustrator 16.0.0, SVG Export Plug-In . SVG Version: 6.00 Build 0)  -->
<!DOCTYPE svg PUBLIC "-//W3C//DTD SVG 1.1//EN" "http://www.w3.org/Graphics/SVG/1.1/DTD/svg11.dtd">
<svg version="1.1" id="Layer_1" xmlns="http://www.w3.org/2000/svg" xmlns:xlink="http://www.w3.org/1999/xlink" x="0px" y="0px"
	 width="115.367px" height="75.079px" viewBox="0 0 115.367 75.079" enable-background="new 0 0 115.367 75.079"
	 xml:space="preserve">
<polygon fill="#2484C6" points="52.042,26.495 68.088,11.958 66.964,10.719 63.904,13.489 62.785,12.251 49.798,24.015 "/>
<polygon fill="#348C41" points="41.672,48.249 27.475,61.415 26.341,60.191 27.684,58.941 26.548,57.715 23.523,60.521 
	22.384,59.297 38.26,44.571 "/>
<polygon fill="#DA2128" points="37.272,27.345 31.534,21.368 23.436,12.931 22.229,14.088 21.073,12.882 19.864,14.041 
	22.722,17.016 21.517,18.175 24.472,21.254 23.264,22.411 32.445,31.976 "/>
<path fill="#FFFFFF" d="M5.44,24.507c1.236,0,2.359,0.215,3.368,0.647c1.008,0.431,1.874,1.004,2.594,1.719
	c0.72,0.715,1.276,1.532,1.667,2.451c0.391,0.92,0.586,1.868,0.586,2.844c0,0.959-0.193,1.896-0.579,2.811
	c-0.386,0.915-0.934,1.735-1.646,2.458c-0.711,0.724-1.574,1.306-2.587,1.746c-1.014,0.44-2.147,0.661-3.403,0.661H1.52v3.607
	c0,0.314-0.167,0.471-0.502,0.471H0.502C0.168,43.922,0,43.765,0,43.452V24.99c0-0.27,0.125-0.418,0.376-0.444l0.084-0.039H5.44z
	 M1.52,38.405h3.933c1.023,0,1.948-0.179,2.775-0.537c0.828-0.357,1.532-0.828,2.113-1.412s1.029-1.251,1.346-2
	c0.315-0.749,0.474-1.512,0.474-2.288c0-0.785-0.158-1.551-0.474-2.301c-0.317-0.75-0.768-1.419-1.353-2.007
	c-0.586-0.589-1.3-1.062-2.141-1.419c-0.842-0.357-1.792-0.536-2.852-0.536H1.52V38.405z"/>
<path fill="#FFFFFF" d="M90.99,31.842c0,0.61-0.071,1.211-0.213,1.804c-0.141,0.593-0.348,1.155-0.621,1.687
	s-0.609,1.026-1.008,1.484c-0.396,0.458-0.854,0.852-1.367,1.184l2.388,5.308c0.009,0.018,0.017,0.052,0.024,0.104
	c0.009,0.053,0.013,0.096,0.013,0.131c0,0.098-0.031,0.185-0.093,0.263c-0.062,0.078-0.151,0.118-0.268,0.118h-0.734
	c-0.157,0-0.278-0.092-0.359-0.275l-2.238-4.98c-0.771,0.322-1.652,0.483-2.639,0.483H78.8v4.275c0,0.331-0.161,0.497-0.485,0.497
	h-0.461c-0.314,0-0.473-0.166-0.473-0.497V25.043c0-0.148,0.044-0.272,0.131-0.373c0.088-0.1,0.188-0.155,0.305-0.163h6.059
	c1.096,0,2.082,0.205,2.961,0.614c0.878,0.41,1.627,0.957,2.245,1.641c0.618,0.685,1.091,1.467,1.418,2.347S90.99,30.9,90.99,31.842
	 M83.875,37.659c0.902,0,1.708-0.163,2.413-0.49s1.3-0.762,1.785-1.308c0.485-0.544,0.856-1.165,1.114-1.863
	c0.256-0.697,0.385-1.417,0.385-2.157c0-0.74-0.129-1.462-0.385-2.164c-0.258-0.701-0.629-1.327-1.114-1.876
	c-0.485-0.549-1.08-0.989-1.785-1.32c-0.705-0.332-1.511-0.497-2.413-0.497h-5.076v11.675H83.875z"/>
<path fill="#FFFFFF" d="M114.857,24.507c0.147,0,0.271,0.037,0.365,0.111c0.096,0.074,0.145,0.194,0.145,0.359v0.458
	c0,0.148-0.045,0.268-0.131,0.359c-0.088,0.091-0.215,0.137-0.381,0.137h-5.517v17.521c0,0.313-0.161,0.471-0.483,0.471h-0.471
	c-0.314,0-0.471-0.156-0.471-0.471V25.931h-5.701c-0.322,0-0.482-0.166-0.482-0.497v-0.458c0-0.313,0.16-0.47,0.482-0.47
	L114.857,24.507L114.857,24.507z"/>
<path fill="#FFFFFF" d="M82.193,52.206c0,1.657-0.932,2.729-2.422,2.729c-1.488,0-2.435-1.064-2.435-2.734
	c0-1.65,0.938-2.722,2.435-2.722C81.26,49.478,82.193,50.543,82.193,52.206 M78.025,52.206c0,1.301,0.682,2.144,1.746,2.144
	c1.086,0,1.732-0.829,1.732-2.183c0-1.273-0.675-2.109-1.732-2.109C78.693,50.057,78.025,50.906,78.025,52.206"/>
<path fill="#FFFFFF" d="M83.83,54.584c0,0.188-0.139,0.283-0.334,0.283c-0.188,0-0.327-0.095-0.327-0.291v-4.277
	c0-0.519,0.215-0.721,0.709-0.721h2.763c0.188,0,0.285,0.121,0.285,0.291c0,0.168-0.098,0.295-0.285,0.295h-2.595
	c-0.133,0-0.216,0.082-0.216,0.217v1.455h2.421c0.181,0,0.271,0.121,0.271,0.289c0,0.155-0.097,0.283-0.271,0.283H83.83V54.584
	L83.83,54.584z"/>
<path fill="#FFFFFF" d="M90.734,54.827c-0.493,0-0.702-0.209-0.702-0.722v-3.798c0-0.518,0.208-0.729,0.702-0.729h1.643
	c1.001,0,1.58,0.465,1.58,1.274c0,0.64-0.285,1.017-0.885,1.206c0.711,0.141,1.072,0.585,1.072,1.312
	c0,0.916-0.619,1.455-1.69,1.455H90.734z M92.343,51.795c0.599,0,0.946-0.323,0.946-0.862c0-0.524-0.326-0.794-0.96-0.794h-1.447
	c-0.132,0-0.202,0.081-0.202,0.215v1.441H92.343z M90.68,54.045c0,0.148,0.068,0.223,0.221,0.223h1.477
	c0.703,0,1.078-0.337,1.078-0.957c0-0.633-0.383-0.963-1.092-0.963h-1.686L90.68,54.045L90.68,54.045z"/>
<path fill="#FFFFFF" d="M95.378,54.678c-0.049,0.135-0.153,0.188-0.271,0.188c-0.049,0-0.092-0.006-0.141-0.02
	c-0.139-0.034-0.242-0.148-0.242-0.277c0-0.04,0.006-0.074,0.021-0.113l1.894-4.602c0.09-0.229,0.264-0.316,0.479-0.316
	c0.222,0,0.403,0.086,0.493,0.316l1.893,4.615c0.021,0.04,0.029,0.072,0.029,0.113c0,0.136-0.112,0.236-0.25,0.271
	c-0.042,0.013-0.084,0.021-0.126,0.021c-0.125,0-0.236-0.062-0.285-0.188l-0.55-1.396h-2.408L95.378,54.678z M98.113,52.725
	l-0.773-1.96c-0.076-0.195-0.152-0.411-0.215-0.64c-0.062,0.229-0.132,0.443-0.216,0.646l-0.787,1.953L98.113,52.725L98.113,52.725z
	"/>
<path fill="#FFFFFF" d="M104.314,54.362c0.043,0.055,0.062,0.115,0.062,0.176c0,0.102-0.062,0.202-0.152,0.271
	c-0.062,0.046-0.133,0.067-0.209,0.067c-0.09,0-0.188-0.041-0.244-0.114l-1.969-2.533l-0.758,0.748v1.617
	c0,0.182-0.139,0.276-0.327,0.276c-0.196,0-0.334-0.095-0.334-0.276v-4.775c0-0.188,0.14-0.276,0.334-0.276
	c0.188,0,0.327,0.088,0.327,0.276v2.351l2.52-2.545c0.056-0.062,0.14-0.088,0.215-0.088c0.084,0,0.168,0.026,0.229,0.08
	c0.077,0.062,0.118,0.162,0.118,0.256c0,0.068-0.02,0.135-0.068,0.183l-1.795,1.75L104.314,54.362z"/>
<path fill="#FFFFFF" d="M105.172,49.815c0-0.189,0.141-0.275,0.342-0.275c0.18,0,0.326,0.086,0.326,0.275v3.059
	c0,0.989,0.502,1.481,1.441,1.481c0.96,0,1.462-0.499,1.462-1.487v-3.053c0-0.189,0.139-0.275,0.333-0.275
	c0.195,0,0.334,0.086,0.334,0.275v3.079c0,1.333-0.744,2.047-2.122,2.047c-1.343,0-2.116-0.692-2.116-2.047V49.815z"/>
<path fill="#FFFFFF" d="M45.081,12.434c-12.253,0-22.186,9.933-22.186,22.185c0,12.252,9.933,22.185,22.186,22.185
	s22.187-9.933,22.187-22.185C67.268,22.367,57.334,12.434,45.081,12.434 M45.095,55.394c-11.483,0-20.793-9.31-20.793-20.793
	c0-11.484,9.31-20.793,20.793-20.793c11.484,0,20.793,9.31,20.793,20.793C65.889,46.084,56.579,55.394,45.095,55.394"/>
<path fill="#2484C6" d="M40.951,23.636c3.747,3.998,7.167,1.892,9.061,0.176l2.214,2.517c-4.591,4.159-9.598,4.142-13.755-0.448
	l-0.903-0.998L19.702,5.166l1.239-1.124l-2.646-2.919L19.536,0l20.532,22.661L40.951,23.636z"/>
<path fill="#DA2128" d="M37.003,43.292c5.235-4.938,4.436-11.561,0.144-16.029l-4.728,4.672c-0.458-0.487,3.37,3.194-0.618,7.146
	c0,0-10.395,9.909-10.395,9.908l1.16,1.207l-4.66,4.471l1.158,1.207l-4.547,4.366l1.16,1.207l6.116-5.872l1.159,1.206
	C22.952,56.78,37.003,43.292,37.003,43.292"/>
<path fill="#348C41" d="M51.859,45.024c-4.212-4.541-9.136-4.587-13.812-0.266l3.516,3.594c2.007-1.843,4.931-1.734,6.667,0.138
	l1.604,1.755l13.057,13.731l1.227-1.14l11.357,12.242l1.226-1.138l-2.677-2.886l1.225-1.139L53.9,47.249L51.859,45.024z"/>
</svg>
