<?xml version="1.0" encoding="utf-8"?>
<!-- Generator: Adobe Illustrator 16.0.0, SVG Export Plug-In . SVG Version: 6.00 Build 0)  -->
<!DOCTYPE svg PUBLIC "-//W3C//DTD SVG 1.1//EN" "http://www.w3.org/Graphics/SVG/1.1/DTD/svg11.dtd">
<svg version="1.1" id="Layer_1" xmlns="http://www.w3.org/2000/svg" xmlns:xlink="http://www.w3.org/1999/xlink" x="0px" y="0px"
	 width="115.367px" height="75.079px" viewBox="0 0 115.367 75.079" enable-background="new 0 0 115.367 75.079"
	 xml:space="preserve">
<polygon fill="#2484C6" points="52.042,26.495 68.088,11.958 66.964,10.719 63.905,13.489 62.785,12.251 49.798,24.015 "/>
<polygon fill="#348C41" points="41.672,48.249 27.475,61.414 26.341,60.191 27.684,58.941 26.548,57.716 23.523,60.521 
	22.384,59.298 38.26,44.571 "/>
<polygon fill="#DA2128" points="37.272,27.345 31.534,21.368 23.436,12.931 22.229,14.088 21.073,12.882 19.864,14.041 
	22.722,17.016 21.517,18.175 24.472,21.254 23.264,22.411 32.445,31.976 "/>
<path d="M5.44,24.507c1.236,0,2.359,0.215,3.368,0.647c1.008,0.431,1.874,1.004,2.594,1.719c0.72,0.715,1.276,1.532,1.667,2.451
	c0.391,0.92,0.586,1.868,0.586,2.844c0,0.959-0.193,1.896-0.579,2.811c-0.386,0.915-0.934,1.735-1.646,2.458
	c-0.711,0.724-1.574,1.305-2.587,1.746c-1.014,0.44-2.147,0.661-3.403,0.661H1.52v3.608c0,0.314-0.167,0.471-0.502,0.471H0.502
	C0.168,43.922,0,43.765,0,43.451V24.99c0-0.27,0.125-0.418,0.376-0.444l0.084-0.039H5.44z M1.52,38.405h3.933
	c1.023,0,1.948-0.179,2.775-0.537c0.828-0.357,1.532-0.828,2.113-1.412c0.581-0.584,1.029-1.251,1.346-2
	c0.315-0.749,0.474-1.512,0.474-2.288c0-0.785-0.158-1.551-0.474-2.301c-0.317-0.75-0.768-1.419-1.353-2.007
	c-0.586-0.589-1.3-1.062-2.141-1.419c-0.842-0.357-1.792-0.536-2.852-0.536H1.52V38.405z"/>
<path d="M90.99,31.842c0,0.61-0.071,1.211-0.212,1.804s-0.348,1.155-0.622,1.687c-0.273,0.532-0.609,1.026-1.007,1.484
	c-0.397,0.458-0.854,0.852-1.368,1.184l2.388,5.308c0.008,0.018,0.017,0.052,0.025,0.104c0.008,0.053,0.012,0.096,0.012,0.131
	c0,0.097-0.031,0.184-0.093,0.262s-0.151,0.118-0.268,0.118h-0.733c-0.158,0-0.279-0.091-0.36-0.275l-2.239-4.981
	c-0.771,0.323-1.651,0.484-2.638,0.484H78.8v4.275c0,0.331-0.162,0.497-0.486,0.497h-0.46c-0.315,0-0.473-0.166-0.473-0.497V25.043
	c0-0.148,0.044-0.272,0.131-0.373c0.087-0.1,0.188-0.155,0.304-0.163h6.059c1.095,0,2.082,0.205,2.961,0.614
	c0.878,0.41,1.627,0.957,2.245,1.641c0.618,0.685,1.091,1.467,1.418,2.347S90.99,30.9,90.99,31.842 M83.875,37.659
	c0.903,0,1.708-0.163,2.413-0.49c0.705-0.327,1.3-0.762,1.785-1.308c0.485-0.544,0.856-1.165,1.114-1.863
	c0.256-0.697,0.385-1.417,0.385-2.157s-0.129-1.462-0.385-2.164c-0.257-0.701-0.629-1.327-1.114-1.876
	c-0.485-0.549-1.08-0.989-1.785-1.32c-0.705-0.332-1.51-0.497-2.413-0.497h-5.076v11.675H83.875z"/>
<path d="M114.857,24.507c0.148,0,0.271,0.037,0.366,0.111c0.096,0.074,0.144,0.194,0.144,0.359v0.458
	c0,0.148-0.044,0.268-0.131,0.359s-0.214,0.137-0.38,0.137h-5.517v17.52c0,0.314-0.161,0.471-0.484,0.471h-0.47
	c-0.314,0-0.471-0.156-0.471-0.471v-17.52h-5.701c-0.323,0-0.483-0.166-0.483-0.497v-0.458c0-0.313,0.161-0.47,0.483-0.47H114.857z"
	/>
<path d="M82.194,52.206c0,1.657-0.933,2.728-2.422,2.728c-1.489,0-2.435-1.064-2.435-2.734c0-1.65,0.939-2.722,2.435-2.722
	C81.26,49.478,82.194,50.543,82.194,52.206 M78.025,52.206c0,1.3,0.682,2.143,1.746,2.143c1.086,0,1.733-0.829,1.733-2.183
	c0-1.273-0.675-2.109-1.733-2.109C78.693,50.057,78.025,50.906,78.025,52.206"/>
<path d="M83.83,54.584c0,0.189-0.139,0.283-0.334,0.283c-0.188,0-0.327-0.094-0.327-0.29V50.3c0-0.519,0.215-0.721,0.709-0.721
	h2.763c0.188,0,0.285,0.121,0.285,0.29c0,0.169-0.098,0.296-0.285,0.296h-2.595c-0.133,0-0.216,0.081-0.216,0.216v1.455h2.421
	c0.181,0,0.271,0.122,0.271,0.29c0,0.155-0.097,0.283-0.271,0.283H83.83V54.584L83.83,54.584z"/>
<path d="M90.735,54.826c-0.494,0-0.703-0.208-0.703-0.721v-3.798c0-0.518,0.208-0.728,0.703-0.728h1.642
	c1.001,0,1.58,0.465,1.58,1.274c0,0.64-0.285,1.016-0.884,1.206c0.71,0.141,1.072,0.585,1.072,1.312c0,0.917-0.62,1.455-1.691,1.455
	H90.735z M92.343,51.796c0.598,0,0.946-0.324,0.946-0.863c0-0.525-0.326-0.794-0.96-0.794h-1.447c-0.132,0-0.202,0.081-0.202,0.215
	v1.442H92.343z M90.679,54.046c0,0.148,0.069,0.222,0.222,0.222h1.476c0.703,0,1.078-0.337,1.078-0.957
	c0-0.633-0.382-0.963-1.092-0.963h-1.685L90.679,54.046L90.679,54.046z"/>
<path d="M95.378,54.678c-0.049,0.135-0.153,0.188-0.271,0.188c-0.049,0-0.091-0.006-0.14-0.02c-0.139-0.034-0.243-0.148-0.243-0.277
	c0-0.04,0.007-0.074,0.021-0.114l1.893-4.601c0.09-0.229,0.264-0.317,0.48-0.317c0.222,0,0.403,0.087,0.493,0.317l1.893,4.615
	c0.021,0.04,0.029,0.073,0.029,0.114c0,0.135-0.112,0.236-0.25,0.27c-0.042,0.013-0.084,0.02-0.126,0.02
	c-0.125,0-0.236-0.061-0.285-0.188l-0.55-1.395h-2.408L95.378,54.678z M98.113,52.725l-0.773-1.96
	c-0.077-0.195-0.153-0.411-0.215-0.64c-0.063,0.229-0.132,0.444-0.216,0.646l-0.787,1.953L98.113,52.725L98.113,52.725z"/>
<path d="M104.315,54.362c0.042,0.054,0.062,0.115,0.062,0.175c0,0.102-0.062,0.203-0.153,0.271
	c-0.062,0.046-0.132,0.067-0.208,0.067c-0.09,0-0.188-0.041-0.244-0.114l-1.969-2.533l-0.758,0.748v1.617
	c0,0.182-0.139,0.276-0.327,0.276c-0.196,0-0.334-0.094-0.334-0.276v-4.775c0-0.188,0.139-0.276,0.334-0.276
	c0.188,0,0.327,0.088,0.327,0.276v2.351l2.52-2.546c0.055-0.061,0.139-0.088,0.215-0.088c0.083,0,0.167,0.027,0.229,0.081
	c0.077,0.061,0.118,0.162,0.118,0.256c0,0.068-0.02,0.135-0.069,0.182l-1.795,1.75L104.315,54.362z"/>
<path d="M105.172,49.815c0-0.189,0.14-0.276,0.341-0.276c0.181,0,0.327,0.087,0.327,0.276v3.058c0,0.99,0.502,1.482,1.441,1.482
	c0.96,0,1.462-0.499,1.462-1.488v-3.052c0-0.189,0.139-0.276,0.333-0.276c0.195,0,0.334,0.087,0.334,0.276v3.079
	c0,1.333-0.744,2.047-2.122,2.047c-1.343,0-2.116-0.693-2.116-2.047V49.815z"/>
<path d="M45.081,12.434c-12.253,0-22.186,9.933-22.186,22.185s9.933,22.185,22.186,22.185s22.186-9.933,22.186-22.185
	S57.334,12.434,45.081,12.434 M45.095,55.394c-11.483,0-20.793-9.309-20.793-20.793c0-11.484,9.31-20.793,20.793-20.793
	c11.484,0,20.793,9.31,20.793,20.793C65.888,46.085,56.579,55.394,45.095,55.394"/>
<path fill="#2484C6" d="M40.951,23.636c3.747,3.998,7.167,1.892,9.061,0.176l2.214,2.517c-4.591,4.159-9.598,4.142-13.755-0.448
	l-0.903-0.998L19.702,5.166l1.239-1.124l-2.646-2.919L19.536,0l20.532,22.661L40.951,23.636z"/>
<path fill="#DA2128" d="M37.003,43.292c5.235-4.938,4.436-11.561,0.144-16.03l-4.728,4.672c-0.458-0.487,3.37,3.194-0.618,7.146
	c0,0-10.395,9.91-10.395,9.909l1.16,1.207l-4.66,4.471l1.158,1.207l-4.547,4.366l1.16,1.207l6.116-5.872l1.159,1.206
	C22.952,56.78,37.003,43.292,37.003,43.292"/>
<path fill="#348C41" d="M51.859,45.024c-4.212-4.541-9.136-4.587-13.812-0.266l3.516,3.594c2.007-1.843,4.931-1.734,6.667,0.138
	l1.604,1.754l13.057,13.732l1.226-1.139l11.357,12.242l1.226-1.138l-2.677-2.886l1.225-1.139L53.9,47.248L51.859,45.024z"/>
</svg>
