<?xml version="1.0" encoding="utf-8"?>
<!-- Generator: Adobe Illustrator 16.0.0, SVG Export Plug-In . SVG Version: 6.00 Build 0)  -->
<!DOCTYPE svg PUBLIC "-//W3C//DTD SVG 1.1//EN" "http://www.w3.org/Graphics/SVG/1.1/DTD/svg11.dtd">
<svg version="1.1" id="Layer_1" xmlns="http://www.w3.org/2000/svg" xmlns:xlink="http://www.w3.org/1999/xlink" x="0px" y="0px"
	 width="62.828px" height="75.858px" viewBox="48.594 0 62.828 75.858" enable-background="new 48.594 0 62.828 75.858"
	 xml:space="preserve">
<polygon fill="#2484C6" points="86.508,26.77 102.721,12.082 101.584,10.83 98.495,13.629 97.363,12.378 84.241,24.264 "/>
<polygon fill="#348C41" points="76.03,48.749 61.687,62.052 60.542,60.815 61.898,59.552 60.75,58.314 57.693,61.149 56.542,59.912 
	72.583,45.033 "/>
<polygon fill="#DA2128" points="71.584,27.629 65.788,21.59 57.606,13.065 56.385,14.234 55.217,13.015 53.997,14.186 
	56.885,17.193 55.667,18.364 58.652,21.475 57.432,22.643 66.708,32.308 "/>
<path fill="#FFFFFF" d="M79.475,12.563c-12.38,0-22.416,10.036-22.416,22.416c0,12.379,10.036,22.415,22.416,22.415
	s22.416-10.036,22.416-22.415C101.891,22.598,91.855,12.563,79.475,12.563 M79.491,55.969c-11.604,0-21.01-9.406-21.01-21.01
	c0-11.603,9.406-21.009,21.01-21.009c11.602,0,21.008,9.406,21.008,21.009C100.499,46.563,91.092,55.969,79.491,55.969"/>
<path fill="#2484C6" d="M75.302,23.881c3.786,4.04,7.241,1.911,9.155,0.179l2.236,2.543c-4.639,4.202-9.697,4.185-13.896-0.452
	l-0.914-1.008L53.833,5.219l1.252-1.137l-2.674-2.95L53.665,0l20.746,22.897L75.302,23.881z"/>
<path fill="#DA2128" d="M71.313,43.741c5.289-4.99,4.48-11.681,0.146-16.196l-4.777,4.722c-0.463-0.492,3.404,3.227-0.625,7.22
	c0,0-10.503,10.012-10.503,10.011l1.172,1.219l-4.708,4.519l1.17,1.219l-4.594,4.411l1.172,1.219l6.18-5.933l1.172,1.218
	C57.118,57.369,71.313,43.741,71.313,43.741"/>
<path fill="#348C41" d="M86.323,45.491c-4.256-4.588-9.23-4.635-13.955-0.27l3.553,3.632c2.029-1.862,4.982-1.752,6.736,0.139
	l1.621,1.772L97.47,64.639l1.239-1.15l11.475,12.369l1.238-1.149l-2.705-2.916l1.238-1.149L88.386,47.738L86.323,45.491z"/>
</svg>
